<?xml version="1.0" encoding="utf-8"?>
<!-- Generator: Adobe Illustrator 15.0.0, SVG Export Plug-In . SVG Version: 6.00 Build 0)  -->
<!DOCTYPE svg PUBLIC "-//W3C//DTD SVG 1.1//EN" "http://www.w3.org/Graphics/SVG/1.1/DTD/svg11.dtd" [
	<!ENTITY st0 "fill:url(#SVGID_1_);">
	<!ENTITY st1 "fill:url(#SVGID_2_);">
	<!ENTITY st2 "fill:none;stroke:#DADADA;stroke-width:0.05;stroke-miterlimit:10;">
]>
<svg version="1.1" id="Layer_1" xmlns="http://www.w3.org/2000/svg" xmlns:xlink="http://www.w3.org/1999/xlink" x="0px" y="0px"
	 width="4px" height="3px" viewBox="0 0 4 3" style="enable-background:new 0 0 4 3;" xml:space="preserve">
<linearGradient id="SVGID_1_" gradientUnits="userSpaceOnUse" x1="2.063" y1="-0.0103" x2="2.063" y2="3.0103">
	<stop  offset="0" style="stop-color:#FFFFFF"/>
	<stop  offset="1" style="stop-color:#6B6B6A"/>
</linearGradient>
<path style="&st0;" d="M2.165-0.01c1.366,0,1.445,0.405,1.445,1.445c0,1.041,0.036,1.575-1.488,1.575
	c-1.525,0-1.568-0.303-1.604-1.598C0.503,0.105,0.799-0.01,2.165-0.01z"/>
<linearGradient id="SVGID_2_" gradientUnits="userSpaceOnUse" x1="2.0635" y1="2.9473" x2="2.0635" y2="0.0527">
	<stop  offset="0" style="stop-color:#0F0F0F"/>
	<stop  offset="0.3091" style="stop-color:#000000"/>
	<stop  offset="0.5939" style="stop-color:#080808;stop-opacity:0.8547"/>
	<stop  offset="0.6061" style="stop-color:#171717;stop-opacity:0.8729"/>
	<stop  offset="0.9939" style="stop-color:#666666;stop-opacity:0.99"/>
</linearGradient>
<path style="&st1;" d="M2.161,0.052c1.309,0,1.385,0.388,1.385,1.385c0,0.997,0.034,1.51-1.427,1.51S0.616,2.656,0.581,1.416
	C0.567,0.163,0.851,0.052,2.161,0.052z"/>
<path style="&st2;" d="M1.364,2.331c0-0.471,0.104-0.637,0.713-0.637c0.61,0,0.686,0.201,0.686,0.637 M2.063,0.731
	c-0.21,0-0.381,0.17-0.381,0.381s0.17,0.381,0.381,0.381s0.381-0.17,0.381-0.381S2.274,0.731,2.063,0.731z"/>
</svg>
