<?xml version="1.0" encoding="utf-8"?>
<!-- Generator: Adobe Illustrator 15.0.0, SVG Export Plug-In . SVG Version: 6.00 Build 0)  -->
<!DOCTYPE svg PUBLIC "-//W3C//DTD SVG 1.1//EN" "http://www.w3.org/Graphics/SVG/1.1/DTD/svg11.dtd" [
	<!ENTITY st0 "fill:url(#SVGID_1_);">
	<!ENTITY st1 "fill:url(#SVGID_2_);">
	<!ENTITY st2 "fill:url(#SVGID_4_);">
	<!ENTITY st3 "fill:url(#SVGID_5_);">
	<!ENTITY st4 "fill:none;stroke:#DADADA;stroke-width:0.05;stroke-miterlimit:10;">
	<!ENTITY st5 "fill:url(#SVGID_3_);stroke:#B2B2B2;stroke-width:0.02;stroke-miterlimit:10;">
	<!ENTITY st6 "fill:#DADADA;">
]>
<svg version="1.1" xmlns="http://www.w3.org/2000/svg" xmlns:xlink="http://www.w3.org/1999/xlink" x="0px" y="0px" width="4px"
	 height="3px" viewBox="0 0 4 3" style="enable-background:new 0 0 4 3;" xml:space="preserve">
<g id="Layer_1">
	<linearGradient id="SVGID_1_" gradientUnits="userSpaceOnUse" x1="2.063" y1="-0.0103" x2="2.063" y2="3.0103">
		<stop  offset="0" style="stop-color:#FFFFFF"/>
		<stop  offset="1" style="stop-color:#6B6B6A"/>
	</linearGradient>
	<path style="&st0;" d="M2.165-0.01c1.366,0,1.445,0.405,1.445,1.445c0,1.041,0.036,1.575-1.488,1.575
		c-1.525,0-1.568-0.303-1.604-1.598C0.503,0.105,0.799-0.01,2.165-0.01z"/>
	<linearGradient id="SVGID_2_" gradientUnits="userSpaceOnUse" x1="2.0635" y1="2.9473" x2="2.0635" y2="0.0527">
		<stop  offset="0" style="stop-color:#0F0F0F"/>
		<stop  offset="0.3091" style="stop-color:#000000"/>
		<stop  offset="0.5939" style="stop-color:#080808;stop-opacity:0.8547"/>
		<stop  offset="0.6061" style="stop-color:#171717;stop-opacity:0.8729"/>
		<stop  offset="0.9939" style="stop-color:#666666;stop-opacity:0.99"/>
	</linearGradient>
	<path style="&st1;" d="M2.161,0.052c1.309,0,1.385,0.388,1.385,1.385c0,0.997,0.034,1.51-1.427,1.51S0.616,2.656,0.581,1.416
		C0.567,0.163,0.851,0.052,2.161,0.052z"/>
</g>
<g id="Layer_6">
	<path style="&st4;" d="M0.82,2.47c0-0.397,0.088-0.538,0.602-0.538S2,2.102,2,2.47 M1.41,1.12c-0.178,0-0.321,0.144-0.321,0.321
		c0,0.178,0.144,0.321,0.321,0.321s0.321-0.144,0.321-0.321C1.731,1.264,1.588,1.12,1.41,1.12z"/>
	<path style="&st4;" d="M2.157,2.47c0-0.397,0.088-0.538,0.602-0.538S3.338,2.102,3.338,2.47 M2.748,1.12
		c-0.178,0-0.321,0.144-0.321,0.321c0,0.178,0.144,0.321,0.321,0.321s0.321-0.144,0.321-0.321C3.068,1.264,2.925,1.12,2.748,1.12z"
		/>
	<linearGradient id="SVGID_3_" gradientUnits="userSpaceOnUse" x1="2.0688" y1="0.9067" x2="2.0688" y2="0.207">
		<stop  offset="0" style="stop-color:#474746"/>
		<stop  offset="0.5818" style="stop-color:#9B9B9A"/>
		<stop  offset="0.6" style="stop-color:#A4A3A3"/>
		<stop  offset="1" style="stop-color:#E9E9E9"/>
	</linearGradient>
	<path style="&st5;" d="M2.769,0.739c0,0.093-0.075,0.168-0.169,0.168H1.537c-0.094,0-0.168-0.075-0.168-0.168V0.375
		c0-0.093,0.074-0.168,0.168-0.168H2.6c0.094,0,0.169,0.075,0.169,0.168V0.739z"/>
	<linearGradient id="SVGID_4_" gradientUnits="userSpaceOnUse" x1="2.4175" y1="1.0708" x2="2.4175" y2="0.9067">
		<stop  offset="0" style="stop-color:#E9E9E9"/>
		<stop  offset="1" style="stop-color:#474746"/>
	</linearGradient>
	<polygon style="&st2;" points="2.366,0.907 2.469,1.071 2.446,0.907 	"/>
	
		<linearGradient id="SVGID_5_" gradientUnits="userSpaceOnUse" x1="0.917" y1="1.0708" x2="0.917" y2="0.9067" gradientTransform="matrix(-1 0 0 1 2.6992 0)">
		<stop  offset="0" style="stop-color:#E9E9E9"/>
		<stop  offset="1" style="stop-color:#474746"/>
	</linearGradient>
	<polygon style="&st3;" points="1.834,0.907 1.73,1.071 1.754,0.907 	"/>
	<circle style="&st6;" cx="1.837" cy="0.557" r="0.097"/>
	<circle style="&st6;" cx="2.08" cy="0.557" r="0.096"/>
	<circle style="&st6;" cx="2.33" cy="0.557" r="0.096"/>
</g>
</svg>
