<?xml version="1.0" encoding="utf-8"?>
<!-- Generator: Adobe Illustrator 15.0.0, SVG Export Plug-In . SVG Version: 6.00 Build 0)  -->
<!DOCTYPE svg PUBLIC "-//W3C//DTD SVG 1.1//EN" "http://www.w3.org/Graphics/SVG/1.1/DTD/svg11.dtd" [
	<!ENTITY st0 "fill:url(#SVGID_13_);stroke:#575756;stroke-width:0.02;stroke-miterlimit:10;">
	<!ENTITY st1 "fill:url(#SVGID_9_);stroke:#575756;stroke-width:0.02;stroke-miterlimit:10;">
	<!ENTITY st2 "display:inline;fill:url(#SVGID_10_);">
	<!ENTITY st3 "display:inline;fill:url(#SVGID_11_);">
	<!ENTITY st4 "display:inline;fill:url(#SVGID_12_);">
	<!ENTITY st5 "fill:url(#SVGID_1_);">
	<!ENTITY st6 "fill:url(#SVGID_2_);">
	<!ENTITY st7 "fill:url(#SVGID_7_);">
	<!ENTITY st8 "fill:url(#SVGID_8_);">
	<!ENTITY st9 "fill:url(#SVGID_14_);stroke:#575756;stroke-width:0.02;stroke-miterlimit:10;">
	<!ENTITY st10 "display:none;">
	<!ENTITY st11 "display:none;fill:none;stroke:#DADADA;stroke-width:0.05;stroke-miterlimit:10;">
	<!ENTITY st12 "display:inline;fill:url(#SVGID_3_);">
	<!ENTITY st13 "display:inline;fill:url(#SVGID_4_);">
	<!ENTITY st14 "display:inline;fill:url(#SVGID_5_);">
	<!ENTITY st15 "display:inline;fill:url(#SVGID_6_);">
	<!ENTITY st16 "fill:none;stroke:#EEEDEF;stroke-width:0.05;stroke-miterlimit:10;">
	<!ENTITY st17 "display:inline;opacity:0.22;fill:#FFFFFF;">
]>
<svg version="1.1" xmlns="http://www.w3.org/2000/svg" xmlns:xlink="http://www.w3.org/1999/xlink" x="0px" y="0px" width="4px"
	 height="3px" viewBox="0 0 4 3" style="enable-background:new 0 0 4 3;" xml:space="preserve">
<g id="Layer_1">
	<linearGradient id="SVGID_1_" gradientUnits="userSpaceOnUse" x1="2.063" y1="-0.0103" x2="2.063" y2="3.0103">
		<stop  offset="0" style="stop-color:#FFFFFF"/>
		<stop  offset="1" style="stop-color:#6B6B6A"/>
	</linearGradient>
	<path style="&st5;" d="M2.165-0.01c1.366,0,1.445,0.405,1.445,1.445c0,1.041,0.036,1.575-1.488,1.575
		c-1.525,0-1.568-0.303-1.604-1.598C0.503,0.105,0.799-0.01,2.165-0.01z"/>
	<linearGradient id="SVGID_2_" gradientUnits="userSpaceOnUse" x1="2.0635" y1="2.9473" x2="2.0635" y2="0.0527">
		<stop  offset="0" style="stop-color:#0F0F0F"/>
		<stop  offset="0.3091" style="stop-color:#000000"/>
		<stop  offset="0.5939" style="stop-color:#080808;stop-opacity:0.8547"/>
		<stop  offset="0.6061" style="stop-color:#171717;stop-opacity:0.8729"/>
		<stop  offset="0.9939" style="stop-color:#666666;stop-opacity:0.99"/>
	</linearGradient>
	<path style="&st6;" d="M2.161,0.052c1.309,0,1.385,0.388,1.385,1.385c0,0.997,0.034,1.51-1.427,1.51S0.616,2.656,0.581,1.416
		C0.567,0.163,0.851,0.052,2.161,0.052z"/>
	<path style="&st11;" d="M1.364,2.331c0-0.471,0.104-0.637,0.713-0.637c0.61,0,0.686,0.201,0.686,0.637 M2.063,0.731
		c-0.21,0-0.381,0.17-0.381,0.381s0.17,0.381,0.381,0.381s0.381-0.17,0.381-0.381S2.274,0.731,2.063,0.731z"/>
</g>
<g id="Layer_2" style="&st10;">
	<linearGradient id="SVGID_3_" gradientUnits="userSpaceOnUse" x1="3.127" y1="2.0469" x2="3.127" y2="3.0459">
		<stop  offset="0" style="stop-color:#575756"/>
		<stop  offset="0.1766" style="stop-color:#454544;stop-opacity:0.8446"/>
		<stop  offset="0.4388" style="stop-color:#2D2D2C;stop-opacity:0.6138"/>
		<stop  offset="0.7097" style="stop-color:#0F0F0E;stop-opacity:0.3755"/>
		<stop  offset="1" style="stop-color:#000000;stop-opacity:0.12"/>
	</linearGradient>
	<rect x="2.602" y="2.047" style="&st12;" width="1.051" height="0.999"/>
	<linearGradient id="SVGID_4_" gradientUnits="userSpaceOnUse" x1="3.1299" y1="2.0723" x2="3.1299" y2="3.0195">
		<stop  offset="0" style="stop-color:#FFFFFF"/>
		<stop  offset="1" style="stop-color:#0A0A0A"/>
	</linearGradient>
	<rect x="2.632" y="2.072" style="&st13;" width="0.996" height="0.947"/>
	<linearGradient id="SVGID_5_" gradientUnits="userSpaceOnUse" x1="2.9946" y1="2.9102" x2="2.9946" y2="2.1816">
		<stop  offset="0" style="stop-color:#9A4B04"/>
		<stop  offset="1" style="stop-color:#5F5E5E"/>
	</linearGradient>
	<path style="&st14;" d="M3.045,2.859c0,0.027-0.022,0.051-0.051,0.051l0,0c-0.027,0-0.05-0.023-0.05-0.051V2.232
		c0-0.028,0.022-0.051,0.05-0.051l0,0c0.028,0,0.051,0.022,0.051,0.051V2.859z"/>
	<linearGradient id="SVGID_6_" gradientUnits="userSpaceOnUse" x1="3.292" y1="2.9102" x2="3.292" y2="2.1816">
		<stop  offset="0" style="stop-color:#9A4B04"/>
		<stop  offset="1" style="stop-color:#5F5E5E"/>
	</linearGradient>
	<path style="&st15;" d="M3.343,2.859c0,0.027-0.023,0.051-0.051,0.051l0,0c-0.027,0-0.051-0.023-0.051-0.051V2.232
		c0-0.028,0.023-0.051,0.051-0.051l0,0c0.027,0,0.051,0.022,0.051,0.051V2.859z"/>
	<path style="&st17;" d="M3.652,2.047c0,0,0,0.157,0,0.34C3.5,2.443,3.304,2.478,3.09,2.478c-0.181,0-0.349-0.024-0.488-0.066
		c0-0.222,0-0.364,0-0.364H3.652z"/>
</g>
<g id="Layer_4">
	
		<linearGradient id="SVGID_7_" gradientUnits="userSpaceOnUse" x1="-22.0293" y1="-4.6948" x2="-20.7646" y2="-4.4718" gradientTransform="matrix(0.9186 -0.3953 0.3953 0.9186 23.1907 -2.3112)">
		<stop  offset="0" style="stop-color:#A1A1A1"/>
		<stop  offset="1" style="stop-color:#DADADA"/>
	</linearGradient>
	<path style="&st7;" d="M1.484,1.778C1.453,1.835,1.883,2.203,1.916,2.189c0.049-0.026,0.081-0.115,0.179-0.147
		c0.099-0.035,0.413,0.286,0.401,0.383C2.485,2.506,2.31,2.624,2.31,2.624S2.004,2.867,1.429,2.315
		C0.854,1.764,0.998,1.438,1.02,1.408C1.04,1.379,1.144,1.224,1.228,1.209C1.313,1.193,1.643,1.503,1.633,1.58
		C1.621,1.658,1.518,1.711,1.484,1.778z"/>
	
		<linearGradient id="SVGID_8_" gradientUnits="userSpaceOnUse" x1="-22.0566" y1="-5.04" x2="-20.7302" y2="-4.0663" gradientTransform="matrix(0.9186 -0.3953 0.3953 0.9186 23.1907 -2.3112)">
		<stop  offset="0" style="stop-color:#D0D0D0"/>
		<stop  offset="0.5333" style="stop-color:#909090"/>
		<stop  offset="0.7515" style="stop-color:#A8A7A7"/>
		<stop  offset="0.9939" style="stop-color:#5A5A59"/>
		<stop  offset="1" style="stop-color:#13110C"/>
	</linearGradient>
	<path style="&st8;" d="M1.474,1.776C1.45,1.846,1.867,2.223,1.918,2.201c0.048-0.021,0.078-0.11,0.171-0.148
		c0.095-0.038,0.391,0.27,0.388,0.362C2.475,2.507,2.291,2.614,2.291,2.614s-0.292,0.228-0.854-0.31
		C0.877,1.77,1.008,1.445,1.028,1.416c0.02-0.028,0.121-0.179,0.204-0.194c0.082-0.015,0.399,0.281,0.389,0.357
		S1.497,1.708,1.474,1.776z"/>
	<line style="&st16;" x1="1.523" y1="1.708" x2="1.113" y2="1.306"/>
	<line style="&st16;" x1="2.424" y1="2.512" x2="1.984" y2="2.138"/>
</g>
<g id="Layer_3" style="&st10;">
	<linearGradient id="SVGID_9_" gradientUnits="userSpaceOnUse" x1="2.2368" y1="1.377" x2="2.0075" y2="1.5041">
		<stop  offset="0.0121" style="stop-color:#C8D419"/>
		<stop  offset="1" style="stop-color:#3AAA35"/>
	</linearGradient>
	<circle style="&st1;" cx="2.123" cy="1.441" r="0.131"/>
	
		<linearGradient id="SVGID_10_" gradientUnits="userSpaceOnUse" x1="11.5449" y1="5.1611" x2="11.2966" y2="5.2988" gradientTransform="matrix(0.9374 -0.3484 0.3484 0.9374 -10.2942 0.4526)">
		<stop  offset="0.0121" style="stop-color:#C8D419"/>
		<stop  offset="1" style="stop-color:#3AAA35"/>
	</linearGradient>
	<path style="&st2;" d="M2.024,1.156c0.171,0.013,0.358,0.072,0.455,0.362c0.054,0.179-0.121,0.21-0.15,0.108
		C2.308,1.483,2.253,1.417,2.186,1.373C2.117,1.33,1.968,1.318,1.968,1.318S1.902,1.311,1.903,1.244
		C1.904,1.178,1.971,1.154,2.024,1.156z"/>
	
		<linearGradient id="SVGID_11_" gradientUnits="userSpaceOnUse" x1="11.876" y1="4.9756" x2="11.5283" y2="5.1683" gradientTransform="matrix(0.9374 -0.3484 0.3484 0.9374 -10.2942 0.4526)">
		<stop  offset="0.0121" style="stop-color:#C8D419"/>
		<stop  offset="1" style="stop-color:#3AAA35"/>
	</linearGradient>
	<path style="&st3;" d="M2.705,1.603c0.034,0.081,0.151,0.052,0.165-0.015c0.009-0.014,0.014-0.355-0.318-0.626
		c-0.3-0.246-0.587-0.193-0.626-0.185c-0.075,0.03-0.08,0.156,0.031,0.174c0.016,0.001,0.207-0.068,0.485,0.141
		C2.676,1.268,2.697,1.588,2.705,1.603z"/>
	
		<linearGradient id="SVGID_12_" gradientUnits="userSpaceOnUse" x1="12.2314" y1="4.7803" x2="11.7113" y2="5.0686" gradientTransform="matrix(0.9374 -0.3484 0.3484 0.9374 -10.2942 0.4526)">
		<stop  offset="0.0121" style="stop-color:#C8D419"/>
		<stop  offset="1" style="stop-color:#3AAA35"/>
	</linearGradient>
	<path style="&st4;" d="M3.088,1.563C3.121,1.644,3.24,1.614,3.252,1.548c0.01-0.014-0.066-0.618-0.476-0.925
		C2.367,0.316,1.901,0.441,1.863,0.449c-0.075,0.03-0.08,0.156,0.031,0.174c0.016,0,0.415-0.116,0.777,0.145
		C3.035,1.029,3.08,1.548,3.088,1.563z"/>
</g>
<g id="Layer_5">
	
		<linearGradient id="SVGID_13_" gradientUnits="userSpaceOnUse" x1="-42.8257" y1="-40.3198" x2="-43.5624" y2="-39.9115" gradientTransform="matrix(0.6958 0.7182 -0.7182 0.6958 3.9783 60.2267)">
		<stop  offset="0.0121" style="stop-color:#C8D419"/>
		<stop  offset="1" style="stop-color:#3AAA35"/>
	</linearGradient>
	<polygon style="&st0;" points="2.204,1.585 2.412,1.799 3.052,1.178 3.171,1.301 3.201,0.826 2.726,0.841 2.845,0.963 	"/>
	
		<linearGradient id="SVGID_14_" gradientUnits="userSpaceOnUse" x1="-43.394" y1="82.5938" x2="-44.1316" y2="83.0026" gradientTransform="matrix(0.6958 0.7182 0.7182 -0.6958 -26.664 89.9158)">
		<stop  offset="0.0121" style="stop-color:#C8D419"/>
		<stop  offset="1" style="stop-color:#3AAA35"/>
	</linearGradient>
	<polygon style="&st9;" points="2.662,0.351 2.87,0.565 2.229,1.186 2.348,1.309 1.872,1.324 1.902,0.849 2.021,0.971 	"/>
</g>
</svg>
