<?xml version="1.0" encoding="utf-8"?>
<!-- Generator: Adobe Illustrator 15.0.0, SVG Export Plug-In . SVG Version: 6.00 Build 0)  -->
<!DOCTYPE svg PUBLIC "-//W3C//DTD SVG 1.1//EN" "http://www.w3.org/Graphics/SVG/1.1/DTD/svg11.dtd" [
	<!ENTITY st0 "fill:url(#SVGID_1_);">
	<!ENTITY st1 "fill:url(#SVGID_2_);">
	<!ENTITY st2 "fill:url(#SVGID_3_);">
	<!ENTITY st3 "fill:url(#SVGID_4_);">
	<!ENTITY st4 "fill:url(#SVGID_5_);stroke:#575756;stroke-width:0.02;stroke-miterlimit:10;">
	<!ENTITY st5 "fill:url(#SVGID_6_);stroke:#575756;stroke-width:0.02;stroke-miterlimit:10;">
	<!ENTITY st6 "fill:none;stroke:#EEEDEF;stroke-width:0.05;stroke-miterlimit:10;">
]>
<svg version="1.1" xmlns="http://www.w3.org/2000/svg" xmlns:xlink="http://www.w3.org/1999/xlink" x="0px" y="0px" width="4px"
	 height="3px" viewBox="0 0 4 3" style="enable-background:new 0 0 4 3;" xml:space="preserve">
<g id="Layer_1">
	<linearGradient id="SVGID_1_" gradientUnits="userSpaceOnUse" x1="2.063" y1="-0.0103" x2="2.063" y2="3.0103">
		<stop  offset="0" style="stop-color:#FFFFFF"/>
		<stop  offset="1" style="stop-color:#6B6B6A"/>
	</linearGradient>
	<path style="&st0;" d="M2.165-0.01c1.366,0,1.445,0.405,1.445,1.445c0,1.041,0.036,1.575-1.488,1.575
		c-1.525,0-1.568-0.303-1.604-1.598C0.503,0.105,0.799-0.01,2.165-0.01z"/>
	<linearGradient id="SVGID_2_" gradientUnits="userSpaceOnUse" x1="2.0635" y1="2.9473" x2="2.0635" y2="0.0527">
		<stop  offset="0" style="stop-color:#0F0F0F"/>
		<stop  offset="0.3091" style="stop-color:#000000"/>
		<stop  offset="0.5939" style="stop-color:#080808;stop-opacity:0.8547"/>
		<stop  offset="0.6061" style="stop-color:#171717;stop-opacity:0.8729"/>
		<stop  offset="0.9939" style="stop-color:#666666;stop-opacity:0.99"/>
	</linearGradient>
	<path style="&st1;" d="M2.161,0.052c1.309,0,1.385,0.388,1.385,1.385c0,0.997,0.034,1.51-1.427,1.51S0.616,2.656,0.581,1.416
		C0.567,0.163,0.851,0.052,2.161,0.052z"/>
</g>
<g id="Layer_4">
	
		<linearGradient id="SVGID_3_" gradientUnits="userSpaceOnUse" x1="-22.0293" y1="-4.6948" x2="-20.7646" y2="-4.4718" gradientTransform="matrix(0.9186 -0.3953 0.3953 0.9186 23.1907 -2.3112)">
		<stop  offset="0" style="stop-color:#A1A1A1"/>
		<stop  offset="1" style="stop-color:#DADADA"/>
	</linearGradient>
	<path style="&st2;" d="M1.484,1.778C1.453,1.835,1.883,2.203,1.916,2.189c0.049-0.026,0.081-0.115,0.179-0.147
		c0.099-0.035,0.413,0.286,0.401,0.383C2.485,2.506,2.31,2.624,2.31,2.624S2.004,2.867,1.429,2.315
		C0.854,1.764,0.998,1.438,1.02,1.408C1.04,1.379,1.144,1.224,1.228,1.209C1.313,1.193,1.643,1.503,1.633,1.58
		C1.621,1.658,1.518,1.711,1.484,1.778z"/>
	
		<linearGradient id="SVGID_4_" gradientUnits="userSpaceOnUse" x1="-22.0566" y1="-5.04" x2="-20.7302" y2="-4.0663" gradientTransform="matrix(0.9186 -0.3953 0.3953 0.9186 23.1907 -2.3112)">
		<stop  offset="0" style="stop-color:#D0D0D0"/>
		<stop  offset="0.5333" style="stop-color:#909090"/>
		<stop  offset="0.7515" style="stop-color:#A8A7A7"/>
		<stop  offset="0.9939" style="stop-color:#5A5A59"/>
		<stop  offset="1" style="stop-color:#13110C"/>
	</linearGradient>
	<path style="&st3;" d="M1.474,1.776C1.45,1.846,1.867,2.223,1.918,2.201c0.048-0.021,0.078-0.11,0.171-0.148
		c0.095-0.038,0.391,0.27,0.388,0.362C2.475,2.507,2.291,2.614,2.291,2.614s-0.292,0.228-0.854-0.31
		C0.877,1.77,1.008,1.445,1.028,1.416c0.02-0.028,0.121-0.179,0.204-0.194c0.082-0.015,0.399,0.281,0.389,0.357
		S1.497,1.708,1.474,1.776z"/>
	<line style="&st6;" x1="1.523" y1="1.708" x2="1.113" y2="1.306"/>
	<line style="&st6;" x1="2.424" y1="2.512" x2="1.984" y2="2.138"/>
</g>
<g id="Layer_5">
	
		<linearGradient id="SVGID_5_" gradientUnits="userSpaceOnUse" x1="-42.4585" y1="-40.271" x2="-43.1954" y2="-39.8625" gradientTransform="matrix(0.6958 0.7182 -0.7182 0.6958 3.7567 59.9269)">
		<stop  offset="0.0121" style="stop-color:#C8D419"/>
		<stop  offset="1" style="stop-color:#3AAA35"/>
	</linearGradient>
	<polygon style="&st4;" points="2.204,1.585 2.412,1.799 3.052,1.178 3.171,1.301 3.201,0.826 2.726,0.841 2.845,0.963 	"/>
	
		<linearGradient id="SVGID_6_" gradientUnits="userSpaceOnUse" x1="-43.3481" y1="82.9639" x2="-44.0857" y2="83.3727" gradientTransform="matrix(0.6958 0.7182 0.7182 -0.6958 -26.9637 90.1374)">
		<stop  offset="0.0121" style="stop-color:#C8D419"/>
		<stop  offset="1" style="stop-color:#3AAA35"/>
	</linearGradient>
	<polygon style="&st5;" points="2.662,0.351 2.87,0.565 2.229,1.186 2.348,1.309 1.872,1.324 1.902,0.849 2.021,0.971 	"/>
</g>
</svg>
