<?xml version="1.0" encoding="utf-8"?>
<!-- Generator: Adobe Illustrator 15.0.0, SVG Export Plug-In . SVG Version: 6.00 Build 0)  -->
<!DOCTYPE svg PUBLIC "-//W3C//DTD SVG 1.1//EN" "http://www.w3.org/Graphics/SVG/1.1/DTD/svg11.dtd" [
	<!ENTITY st0 "opacity:0.22;fill:#FFFFFF;">
	<!ENTITY st1 "fill:url(#SVGID_1_);">
	<!ENTITY st2 "fill:url(#SVGID_2_);">
	<!ENTITY st3 "fill:url(#SVGID_3_);">
	<!ENTITY st4 "fill:url(#SVGID_4_);">
	<!ENTITY st5 "fill:url(#SVGID_5_);">
	<!ENTITY st6 "fill:url(#SVGID_6_);">
	<!ENTITY st7 "fill:none;stroke:#DADADA;stroke-width:0.05;stroke-miterlimit:10;">
]>
<svg version="1.1" xmlns="http://www.w3.org/2000/svg" xmlns:xlink="http://www.w3.org/1999/xlink" x="0px" y="0px" width="4px"
	 height="3px" viewBox="0 0 4 3" style="enable-background:new 0 0 4 3;" xml:space="preserve">
<g id="Layer_1">
	<linearGradient id="SVGID_1_" gradientUnits="userSpaceOnUse" x1="2.063" y1="-0.0103" x2="2.063" y2="3.0103">
		<stop  offset="0" style="stop-color:#FFFFFF"/>
		<stop  offset="1" style="stop-color:#6B6B6A"/>
	</linearGradient>
	<path style="&st1;" d="M2.165-0.01c1.366,0,1.445,0.405,1.445,1.445c0,1.041,0.036,1.575-1.488,1.575
		c-1.525,0-1.568-0.303-1.604-1.598C0.503,0.105,0.799-0.01,2.165-0.01z"/>
	<linearGradient id="SVGID_2_" gradientUnits="userSpaceOnUse" x1="2.0635" y1="2.9473" x2="2.0635" y2="0.0527">
		<stop  offset="0" style="stop-color:#0F0F0F"/>
		<stop  offset="0.3091" style="stop-color:#000000"/>
		<stop  offset="0.5939" style="stop-color:#080808;stop-opacity:0.8547"/>
		<stop  offset="0.6061" style="stop-color:#171717;stop-opacity:0.8729"/>
		<stop  offset="0.9939" style="stop-color:#666666;stop-opacity:0.99"/>
	</linearGradient>
	<path style="&st2;" d="M2.161,0.052c1.309,0,1.385,0.388,1.385,1.385c0,0.997,0.034,1.51-1.427,1.51S0.616,2.656,0.581,1.416
		C0.567,0.163,0.851,0.052,2.161,0.052z"/>
	<path style="&st7;" d="M1.364,2.331c0-0.471,0.104-0.637,0.713-0.637c0.61,0,0.686,0.201,0.686,0.637 M2.063,0.731
		c-0.21,0-0.381,0.17-0.381,0.381s0.17,0.381,0.381,0.381s0.381-0.17,0.381-0.381S2.274,0.731,2.063,0.731z"/>
</g>
<g id="Layer_2">
	<linearGradient id="SVGID_3_" gradientUnits="userSpaceOnUse" x1="3.127" y1="2.0469" x2="3.127" y2="3.0459">
		<stop  offset="0" style="stop-color:#575756"/>
		<stop  offset="0.1766" style="stop-color:#454544;stop-opacity:0.8446"/>
		<stop  offset="0.4388" style="stop-color:#2D2D2C;stop-opacity:0.6138"/>
		<stop  offset="0.7097" style="stop-color:#0F0F0E;stop-opacity:0.3755"/>
		<stop  offset="1" style="stop-color:#000000;stop-opacity:0.12"/>
	</linearGradient>
	<rect x="2.602" y="2.047" style="&st3;" width="1.051" height="0.999"/>
	<linearGradient id="SVGID_4_" gradientUnits="userSpaceOnUse" x1="3.1299" y1="2.0723" x2="3.1299" y2="3.0195">
		<stop  offset="0" style="stop-color:#FFFFFF"/>
		<stop  offset="1" style="stop-color:#0A0A0A"/>
	</linearGradient>
	<rect x="2.632" y="2.072" style="&st4;" width="0.996" height="0.947"/>
	<linearGradient id="SVGID_5_" gradientUnits="userSpaceOnUse" x1="2.9946" y1="2.9102" x2="2.9946" y2="2.1816">
		<stop  offset="0" style="stop-color:#9A4B04"/>
		<stop  offset="1" style="stop-color:#5F5E5E"/>
	</linearGradient>
	<path style="&st5;" d="M3.045,2.859c0,0.027-0.022,0.051-0.051,0.051l0,0c-0.027,0-0.05-0.023-0.05-0.051V2.232
		c0-0.028,0.022-0.051,0.05-0.051l0,0c0.028,0,0.051,0.022,0.051,0.051V2.859z"/>
	<linearGradient id="SVGID_6_" gradientUnits="userSpaceOnUse" x1="3.292" y1="2.9102" x2="3.292" y2="2.1816">
		<stop  offset="0" style="stop-color:#9A4B04"/>
		<stop  offset="1" style="stop-color:#5F5E5E"/>
	</linearGradient>
	<path style="&st6;" d="M3.343,2.859c0,0.027-0.023,0.051-0.051,0.051l0,0c-0.027,0-0.051-0.023-0.051-0.051V2.232
		c0-0.028,0.023-0.051,0.051-0.051l0,0c0.027,0,0.051,0.022,0.051,0.051V2.859z"/>
	<path style="&st0;" d="M3.652,2.047c0,0,0,0.157,0,0.34C3.5,2.443,3.304,2.478,3.09,2.478c-0.181,0-0.349-0.024-0.488-0.066
		c0-0.222,0-0.364,0-0.364H3.652z"/>
</g>
</svg>
