<?xml version="1.0" encoding="utf-8"?>
<!-- Generator: Adobe Illustrator 15.0.0, SVG Export Plug-In . SVG Version: 6.00 Build 0)  -->
<!DOCTYPE svg PUBLIC "-//W3C//DTD SVG 1.1//EN" "http://www.w3.org/Graphics/SVG/1.1/DTD/svg11.dtd" [
	<!ENTITY st0 "fill:#FFFFFF;stroke:#231F20;stroke-width:0.05;">
]>
<svg version="1.1" id="Layer_9" xmlns="http://www.w3.org/2000/svg" xmlns:xlink="http://www.w3.org/1999/xlink" x="0px" y="0px"
	 width="4px" height="3px" viewBox="0 0 4 3" style="enable-background:new 0 0 4 3;" xml:space="preserve">
<path style="&st0;" d="M2.376,2.006c0.25,0,0.753,0.228,0.759,0.353c0.008,0.125-0.139,0.619-0.708,0.584
	C2.114,2.901,1.314,2.554,0.96,2.122C0.606,1.691,0.376,1.207,0.349,0.955c-0.028-0.25-0.035-0.432,0.139-0.653
	C0.579,0.185,0.751,0.03,0.918,0.059c0.146,0.11,0.441,0.61,0.299,0.833C1.146,1.005,1.016,1.094,0.981,1.185
	C0.96,1.441,1.391,2.157,2.083,2.262C2.166,2.271,2.273,2.021,2.376,2.006z"/>
</svg>
