<?xml version="1.0" encoding="utf-8"?>
<!-- Generator: Adobe Illustrator 15.0.0, SVG Export Plug-In . SVG Version: 6.00 Build 0)  -->
<!DOCTYPE svg PUBLIC "-//W3C//DTD SVG 1.1//EN" "http://www.w3.org/Graphics/SVG/1.1/DTD/svg11.dtd" [
	<!ENTITY st0 "display:inline;fill:url(#SVGID_16_);stroke:#575756;stroke-width:0.02;stroke-miterlimit:10;">
	<!ENTITY st1 "fill:#808080;">
	<!ENTITY st2 "fill:#FFFFFF;stroke:#575756;stroke-width:0.04;">
	<!ENTITY st3 "display:none;fill:url(#SVGID_19_);">
	<!ENTITY st4 "display:inline;fill:url(#SVGID_10_);">
	<!ENTITY st5 "display:inline;fill:url(#SVGID_11_);">
	<!ENTITY st6 "display:inline;fill:url(#SVGID_13_);">
	<!ENTITY st7 "display:inline;fill:url(#SVGID_14_);">
	<!ENTITY st8 "display:inline;fill:url(#SVGID_15_);">
	<!ENTITY st9 "fill:#F6F6F6;">
	<!ENTITY st10 "display:inline;fill:none;stroke:#DADADA;stroke-width:0.05;stroke-miterlimit:10;">
	<!ENTITY st11 "display:inline;fill:#FFFFFF;stroke:#231F20;stroke-width:0.05;">
	<!ENTITY st12 "display:inline;fill:url(#SVGID_17_);stroke:#575756;stroke-width:0.02;stroke-miterlimit:10;">
	<!ENTITY st13 "fill:#FFFFFF;">
	<!ENTITY st14 "display:inline;">
	<!ENTITY st15 "fill:url(#SVGID_12_);stroke:#575756;stroke-width:0.02;stroke-miterlimit:10;">
	<!ENTITY st16 "display:inline;fill:none;stroke:#EEEDEF;stroke-width:0.05;stroke-miterlimit:10;">
	<!ENTITY st17 "display:inline;fill:#DADADA;">
	<!ENTITY st18 "fill:url(#SVGID_18_);">
	<!ENTITY st19 "fill:url(#SVGID_20_);">
	<!ENTITY st20 "fill:url(#SVGID_21_);">
	<!ENTITY st21 "fill:url(#SVGID_22_);">
	<!ENTITY st22 "fill:url(#SVGID_23_);">
	<!ENTITY st23 "fill:url(#SVGID_24_);">
	<!ENTITY st24 "fill:url(#SVGID_25_);">
	<!ENTITY st25 "fill:url(#SVGID_26_);">
	<!ENTITY st26 "fill:url(#SVGID_27_);">
	<!ENTITY st27 "fill:url(#SVGID_28_);">
	<!ENTITY st28 "fill:#FFFFFF;stroke:#231F20;stroke-width:0.05;">
	<!ENTITY st29 "display:none;">
	<!ENTITY st30 "display:inline;fill:url(#SVGID_3_);stroke:#B2B2B2;stroke-width:0.02;stroke-miterlimit:10;">
	<!ENTITY st31 "display:inline;fill:url(#SVGID_1_);">
	<!ENTITY st32 "display:inline;fill:url(#SVGID_2_);">
	<!ENTITY st33 "display:inline;fill:url(#SVGID_4_);">
	<!ENTITY st34 "display:inline;fill:url(#SVGID_5_);">
	<!ENTITY st35 "display:inline;fill:url(#SVGID_6_);">
	<!ENTITY st36 "display:inline;fill:url(#SVGID_7_);">
	<!ENTITY st37 "display:inline;fill:url(#SVGID_8_);">
	<!ENTITY st38 "display:inline;fill:url(#SVGID_9_);">
	<!ENTITY st39 "display:inline;opacity:0.22;fill:#FFFFFF;">
]>
<svg version="1.1" xmlns="http://www.w3.org/2000/svg" xmlns:xlink="http://www.w3.org/1999/xlink" x="0px" y="0px" width="4px"
	 height="3px" viewBox="0 0 4 3" style="enable-background:new 0 0 4 3;" xml:space="preserve">
<g id="Layer_1" style="&st29;">
	<linearGradient id="SVGID_1_" gradientUnits="userSpaceOnUse" x1="2.063" y1="-0.0103" x2="2.063" y2="3.0103">
		<stop  offset="0" style="stop-color:#FFFFFF"/>
		<stop  offset="1" style="stop-color:#6B6B6A"/>
	</linearGradient>
	<path style="&st31;" d="M2.165-0.01c1.366,0,1.445,0.405,1.445,1.445c0,1.041,0.036,1.575-1.488,1.575
		c-1.525,0-1.568-0.303-1.604-1.598C0.503,0.105,0.799-0.01,2.165-0.01z"/>
	<linearGradient id="SVGID_2_" gradientUnits="userSpaceOnUse" x1="2.0635" y1="2.9473" x2="2.0635" y2="0.0527">
		<stop  offset="0" style="stop-color:#0F0F0F"/>
		<stop  offset="0.3091" style="stop-color:#000000"/>
		<stop  offset="0.5939" style="stop-color:#080808;stop-opacity:0.8547"/>
		<stop  offset="0.6061" style="stop-color:#171717;stop-opacity:0.8729"/>
		<stop  offset="0.9939" style="stop-color:#666666;stop-opacity:0.99"/>
	</linearGradient>
	<path style="&st32;" d="M2.161,0.052c1.309,0,1.385,0.388,1.385,1.385c0,0.997,0.034,1.51-1.427,1.51S0.616,2.656,0.581,1.416
		C0.567,0.163,0.851,0.052,2.161,0.052z"/>
	<path style="&st10;" d="M1.364,2.331c0-0.471,0.104-0.637,0.713-0.637c0.61,0,0.686,0.201,0.686,0.637 M2.063,0.731
		c-0.21,0-0.381,0.17-0.381,0.381s0.17,0.381,0.381,0.381s0.381-0.17,0.381-0.381S2.274,0.731,2.063,0.731z"/>
</g>
<g id="Layer_6" style="&st29;">
	<path style="&st10;" d="M0.82,2.47c0-0.397,0.088-0.538,0.602-0.538S2,2.102,2,2.47 M1.41,1.12c-0.178,0-0.321,0.144-0.321,0.321
		c0,0.178,0.144,0.321,0.321,0.321s0.321-0.144,0.321-0.321C1.731,1.264,1.588,1.12,1.41,1.12z"/>
	<path style="&st10;" d="M2.157,2.47c0-0.397,0.088-0.538,0.602-0.538S3.338,2.102,3.338,2.47 M2.748,1.12
		c-0.178,0-0.321,0.144-0.321,0.321c0,0.178,0.144,0.321,0.321,0.321s0.321-0.144,0.321-0.321C3.068,1.264,2.925,1.12,2.748,1.12z"
		/>
	<linearGradient id="SVGID_3_" gradientUnits="userSpaceOnUse" x1="2.0688" y1="0.9067" x2="2.0688" y2="0.207">
		<stop  offset="0" style="stop-color:#474746"/>
		<stop  offset="0.5818" style="stop-color:#9B9B9A"/>
		<stop  offset="0.6" style="stop-color:#A4A3A3"/>
		<stop  offset="1" style="stop-color:#E9E9E9"/>
	</linearGradient>
	<path style="&st30;" d="M2.769,0.739c0,0.093-0.075,0.168-0.169,0.168H1.537c-0.094,0-0.168-0.075-0.168-0.168V0.375
		c0-0.093,0.074-0.168,0.168-0.168H2.6c0.094,0,0.169,0.075,0.169,0.168V0.739z"/>
	<linearGradient id="SVGID_4_" gradientUnits="userSpaceOnUse" x1="2.4175" y1="1.0708" x2="2.4175" y2="0.9067">
		<stop  offset="0" style="stop-color:#E9E9E9"/>
		<stop  offset="1" style="stop-color:#474746"/>
	</linearGradient>
	<polygon style="&st33;" points="2.366,0.907 2.469,1.071 2.446,0.907 	"/>
	
		<linearGradient id="SVGID_5_" gradientUnits="userSpaceOnUse" x1="0.917" y1="1.0708" x2="0.917" y2="0.9067" gradientTransform="matrix(-1 0 0 1 2.6992 0)">
		<stop  offset="0" style="stop-color:#E9E9E9"/>
		<stop  offset="1" style="stop-color:#474746"/>
	</linearGradient>
	<polygon style="&st34;" points="1.834,0.907 1.73,1.071 1.754,0.907 	"/>
	<circle style="&st17;" cx="1.837" cy="0.557" r="0.097"/>
	<circle style="&st17;" cx="2.08" cy="0.557" r="0.096"/>
	<circle style="&st17;" cx="2.33" cy="0.557" r="0.096"/>
</g>
<g id="Layer_2" style="&st29;">
	<linearGradient id="SVGID_6_" gradientUnits="userSpaceOnUse" x1="3.127" y1="2.0469" x2="3.127" y2="3.0459">
		<stop  offset="0" style="stop-color:#575756"/>
		<stop  offset="0.1766" style="stop-color:#454544;stop-opacity:0.8446"/>
		<stop  offset="0.4388" style="stop-color:#2D2D2C;stop-opacity:0.6138"/>
		<stop  offset="0.7097" style="stop-color:#0F0F0E;stop-opacity:0.3755"/>
		<stop  offset="1" style="stop-color:#000000;stop-opacity:0.12"/>
	</linearGradient>
	<rect x="2.602" y="2.047" style="&st35;" width="1.051" height="0.999"/>
	<linearGradient id="SVGID_7_" gradientUnits="userSpaceOnUse" x1="3.1299" y1="2.0723" x2="3.1299" y2="3.0195">
		<stop  offset="0" style="stop-color:#FFFFFF"/>
		<stop  offset="1" style="stop-color:#0A0A0A"/>
	</linearGradient>
	<rect x="2.632" y="2.072" style="&st36;" width="0.996" height="0.947"/>
	<linearGradient id="SVGID_8_" gradientUnits="userSpaceOnUse" x1="2.9946" y1="2.9102" x2="2.9946" y2="2.1816">
		<stop  offset="0" style="stop-color:#9A4B04"/>
		<stop  offset="1" style="stop-color:#5F5E5E"/>
	</linearGradient>
	<path style="&st37;" d="M3.045,2.859c0,0.027-0.022,0.051-0.051,0.051l0,0c-0.027,0-0.05-0.023-0.05-0.051V2.232
		c0-0.028,0.022-0.051,0.05-0.051l0,0c0.028,0,0.051,0.022,0.051,0.051V2.859z"/>
	<linearGradient id="SVGID_9_" gradientUnits="userSpaceOnUse" x1="3.292" y1="2.9102" x2="3.292" y2="2.1816">
		<stop  offset="0" style="stop-color:#9A4B04"/>
		<stop  offset="1" style="stop-color:#5F5E5E"/>
	</linearGradient>
	<path style="&st38;" d="M3.343,2.859c0,0.027-0.023,0.051-0.051,0.051l0,0c-0.027,0-0.051-0.023-0.051-0.051V2.232
		c0-0.028,0.023-0.051,0.051-0.051l0,0c0.027,0,0.051,0.022,0.051,0.051V2.859z"/>
	<path style="&st39;" d="M3.652,2.047c0,0,0,0.157,0,0.34C3.5,2.443,3.304,2.478,3.09,2.478c-0.181,0-0.349-0.024-0.488-0.066
		c0-0.222,0-0.364,0-0.364H3.652z"/>
</g>
<g id="Layer_4" style="&st29;">
	
		<linearGradient id="SVGID_10_" gradientUnits="userSpaceOnUse" x1="-22.0293" y1="-4.6948" x2="-20.7646" y2="-4.4718" gradientTransform="matrix(0.9186 -0.3953 0.3953 0.9186 23.1907 -2.3112)">
		<stop  offset="0" style="stop-color:#A1A1A1"/>
		<stop  offset="1" style="stop-color:#DADADA"/>
	</linearGradient>
	<path style="&st4;" d="M1.484,1.778C1.453,1.835,1.883,2.203,1.916,2.189c0.049-0.026,0.081-0.115,0.179-0.147
		c0.099-0.035,0.413,0.286,0.401,0.383C2.485,2.506,2.31,2.624,2.31,2.624S2.004,2.867,1.429,2.315
		C0.854,1.764,0.998,1.438,1.02,1.408C1.04,1.379,1.144,1.224,1.228,1.209C1.313,1.193,1.643,1.503,1.633,1.58
		C1.621,1.658,1.518,1.711,1.484,1.778z"/>
	
		<linearGradient id="SVGID_11_" gradientUnits="userSpaceOnUse" x1="-22.0566" y1="-5.04" x2="-20.7302" y2="-4.0663" gradientTransform="matrix(0.9186 -0.3953 0.3953 0.9186 23.1907 -2.3112)">
		<stop  offset="0" style="stop-color:#D0D0D0"/>
		<stop  offset="0.5333" style="stop-color:#909090"/>
		<stop  offset="0.7515" style="stop-color:#A8A7A7"/>
		<stop  offset="0.9939" style="stop-color:#5A5A59"/>
		<stop  offset="1" style="stop-color:#13110C"/>
	</linearGradient>
	<path style="&st5;" d="M1.474,1.776C1.45,1.846,1.867,2.223,1.918,2.201c0.048-0.021,0.078-0.11,0.171-0.148
		c0.095-0.038,0.391,0.27,0.388,0.362C2.475,2.507,2.291,2.614,2.291,2.614s-0.292,0.228-0.854-0.31
		C0.877,1.77,1.008,1.445,1.028,1.416c0.02-0.028,0.121-0.179,0.204-0.194c0.082-0.015,0.399,0.281,0.389,0.357
		S1.497,1.708,1.474,1.776z"/>
	<line style="&st16;" x1="1.523" y1="1.708" x2="1.113" y2="1.306"/>
	<line style="&st16;" x1="2.424" y1="2.512" x2="1.984" y2="2.138"/>
</g>
<g id="Layer_3" style="&st29;">
	<linearGradient id="SVGID_12_" gradientUnits="userSpaceOnUse" x1="2.2368" y1="1.377" x2="2.0075" y2="1.5041">
		<stop  offset="0.0121" style="stop-color:#C8D419"/>
		<stop  offset="1" style="stop-color:#3AAA35"/>
	</linearGradient>
	<circle style="&st15;" cx="2.123" cy="1.441" r="0.131"/>
	
		<linearGradient id="SVGID_13_" gradientUnits="userSpaceOnUse" x1="11.5449" y1="5.1611" x2="11.2966" y2="5.2988" gradientTransform="matrix(0.9374 -0.3484 0.3484 0.9374 -10.2942 0.4526)">
		<stop  offset="0.0121" style="stop-color:#C8D419"/>
		<stop  offset="1" style="stop-color:#3AAA35"/>
	</linearGradient>
	<path style="&st6;" d="M2.024,1.156c0.171,0.013,0.358,0.072,0.455,0.362c0.054,0.179-0.121,0.21-0.15,0.108
		C2.308,1.483,2.253,1.417,2.186,1.373C2.117,1.33,1.968,1.318,1.968,1.318S1.902,1.311,1.903,1.244
		C1.904,1.178,1.971,1.154,2.024,1.156z"/>
	
		<linearGradient id="SVGID_14_" gradientUnits="userSpaceOnUse" x1="11.876" y1="4.9756" x2="11.5283" y2="5.1683" gradientTransform="matrix(0.9374 -0.3484 0.3484 0.9374 -10.2942 0.4526)">
		<stop  offset="0.0121" style="stop-color:#C8D419"/>
		<stop  offset="1" style="stop-color:#3AAA35"/>
	</linearGradient>
	<path style="&st7;" d="M2.705,1.603c0.034,0.081,0.151,0.052,0.165-0.015c0.009-0.014,0.014-0.355-0.318-0.626
		c-0.3-0.246-0.587-0.193-0.626-0.185c-0.075,0.03-0.08,0.156,0.031,0.174c0.016,0.001,0.207-0.068,0.485,0.141
		C2.676,1.268,2.697,1.588,2.705,1.603z"/>
	
		<linearGradient id="SVGID_15_" gradientUnits="userSpaceOnUse" x1="12.2314" y1="4.7803" x2="11.7113" y2="5.0686" gradientTransform="matrix(0.9374 -0.3484 0.3484 0.9374 -10.2942 0.4526)">
		<stop  offset="0.0121" style="stop-color:#C8D419"/>
		<stop  offset="1" style="stop-color:#3AAA35"/>
	</linearGradient>
	<path style="&st8;" d="M3.088,1.563C3.121,1.644,3.24,1.614,3.252,1.548c0.01-0.014-0.066-0.618-0.476-0.925
		C2.367,0.316,1.901,0.441,1.863,0.449c-0.075,0.03-0.08,0.156,0.031,0.174c0.016,0,0.415-0.116,0.777,0.145
		C3.035,1.029,3.08,1.548,3.088,1.563z"/>
</g>
<g id="Layer_5" style="&st29;">
	
		<linearGradient id="SVGID_16_" gradientUnits="userSpaceOnUse" x1="-42.4585" y1="-40.271" x2="-43.1954" y2="-39.8625" gradientTransform="matrix(0.6958 0.7182 -0.7182 0.6958 3.7567 59.9269)">
		<stop  offset="0.0121" style="stop-color:#C8D419"/>
		<stop  offset="1" style="stop-color:#3AAA35"/>
	</linearGradient>
	<polygon style="&st0;" points="2.204,1.585 2.412,1.799 3.052,1.178 3.171,1.301 3.201,0.826 2.726,0.841 2.845,0.963 	"/>
	
		<linearGradient id="SVGID_17_" gradientUnits="userSpaceOnUse" x1="-43.3481" y1="82.9639" x2="-44.0857" y2="83.3727" gradientTransform="matrix(0.6958 0.7182 0.7182 -0.6958 -26.9637 90.1374)">
		<stop  offset="0.0121" style="stop-color:#C8D419"/>
		<stop  offset="1" style="stop-color:#3AAA35"/>
	</linearGradient>
	<polygon style="&st12;" points="2.662,0.351 2.87,0.565 2.229,1.186 2.348,1.309 1.872,1.324 1.902,0.849 2.021,0.971 	"/>
</g>
<g id="Layer_7">
	<g>
		
			<radialGradient id="SVGID_18_" cx="3.0615" cy="4.0469" r="11.9808" gradientTransform="matrix(0.9892 0 0 1.0113 -0.3914 -10.2589)" gradientUnits="userSpaceOnUse">
			<stop  offset="0.118" style="stop-color:#DADADA"/>
			<stop  offset="0.2077" style="stop-color:#DFDFDE"/>
			<stop  offset="0.3293" style="stop-color:#EBEBEB"/>
			<stop  offset="0.3818" style="stop-color:#F2F2F2"/>
			<stop  offset="0.6121" style="stop-color:#616160"/>
			<stop  offset="0.736" style="stop-color:#737272"/>
			<stop  offset="0.8315" style="stop-color:#838382"/>
			<stop  offset="1" style="stop-color:#6D6D6C"/>
		</radialGradient>
		<path style="&st18;" d="M2.696,2.378c0,0.328-0.28,0.599-0.621,0.599H1.034c-0.344,0-0.624-0.271-0.624-0.599V0.619
			c0-0.333,0.219-0.603,0.624-0.603h1.041c0.341,0,0.621,0.269,0.621,0.603V2.378z"/>
		<path style="&st13;" d="M2.639,2.327c0,0.323-0.269,0.58-0.598,0.58H1.049c-0.329,0-0.594-0.257-0.594-0.58V0.634
			c0-0.322,0.246-0.568,0.575-0.568L2.025,0.07c0.33,0,0.614,0.242,0.614,0.564V2.327z"/>
		
			<radialGradient id="SVGID_19_" cx="3.207" cy="4.3525" r="11.6055" gradientTransform="matrix(1.0044 0 0 1.0115 -0.607 -10.3072)" gradientUnits="userSpaceOnUse">
			<stop  offset="0.2242" style="stop-color:#DADADA"/>
			<stop  offset="0.2992" style="stop-color:#D5D5D5"/>
			<stop  offset="0.401" style="stop-color:#C8C8C8"/>
			<stop  offset="0.5183" style="stop-color:#B2B1B1"/>
			<stop  offset="0.6461" style="stop-color:#909090"/>
			<stop  offset="0.6909" style="stop-color:#838382"/>
			<stop  offset="0.8909" style="stop-color:#F2F2F2"/>
			<stop  offset="1" style="stop-color:#6D6D6C"/>
		</radialGradient>
		<path style="&st3;" d="M2.672,2.389c0,0.312-0.276,0.564-0.616,0.564H1.03c-0.341,0-0.613-0.253-0.613-0.564V0.739
			c0-0.196,0.019-0.317,0.075-0.416c0.106-0.181,0.276-0.238,0.276-0.238S0.731,0.115,0.758,0.148
			C0.784,0.18,0.871,0.165,1.045,0.165H2.07c0.341,0,0.602,0.26,0.602,0.575V2.389z"/>
		
			<radialGradient id="SVGID_20_" cx="-1.2661" cy="-0.7568" r="12.0737" gradientTransform="matrix(1.0518 0 0 1.0056 2.3446 -5.4184)" gradientUnits="userSpaceOnUse">
			<stop  offset="0" style="stop-color:#F2F2F2"/>
			<stop  offset="0.2545" style="stop-color:#DADADA"/>
			<stop  offset="0.3246" style="stop-color:#D5D5D5"/>
			<stop  offset="0.4198" style="stop-color:#C8C8C8"/>
			<stop  offset="0.5295" style="stop-color:#B2B1B1"/>
			<stop  offset="0.649" style="stop-color:#909090"/>
			<stop  offset="0.6909" style="stop-color:#838382"/>
			<stop  offset="1" style="stop-color:#6D6D6C"/>
		</radialGradient>
		<path style="&st19;" d="M0.992,0.229l0.004,2.754c0,0-0.284-0.018-0.408-0.139C0.462,2.726,0.36,2.661,0.36,2.351
			c0-0.313,0.004-1.664,0.004-1.854c0-0.242,0.295-0.48,0.511-0.48c0.061,0,0.155,0,0.155,0l-0.037,0.05L0.992,0.229z"/>
		<path style="&st9;" d="M0.946,2.927c-0.087-0.016-0.23-0.051-0.298-0.118C0.636,2.797,0.625,2.785,0.614,2.775
			c-0.098-0.095-0.17-0.164-0.17-0.425c0-0.178,0.003-0.684,0.003-1.123c0-0.345,0.004-0.647,0.004-0.731
			c0-0.185,0.193-0.378,0.367-0.42c0.096-0.004,0.133,0,0.133,0s-0.002,0.073,0,0.138C0.952,0.278,0.936,0.516,0.946,2.927
			L0.946,2.927z"/>
		<circle style="&st1;" cx="0.706" cy="0.725" r="0.15"/>
		<path style="&st1;" d="M0.856,1.273c0,0.082-0.068,0.152-0.151,0.152s-0.148-0.07-0.148-0.152c0-0.08,0.064-0.148,0.148-0.148
			S0.856,1.193,0.856,1.273z"/>
		<circle style="&st1;" cx="0.706" cy="1.826" r="0.15"/>
		<path style="&st1;" d="M0.856,2.374c0,0.083-0.068,0.152-0.151,0.152S0.557,2.457,0.557,2.374c0-0.08,0.064-0.147,0.148-0.147
			S0.856,2.294,0.856,2.374z"/>
		
			<radialGradient id="SVGID_21_" cx="0.5" cy="-193.9961" r="1.7931" gradientTransform="matrix(1.0001 0 0 0.8045 0.0241 155.5062)" gradientUnits="userSpaceOnUse">
			<stop  offset="0" style="stop-color:#FAFAFA"/>
			<stop  offset="0.2459" style="stop-color:#F7F6F7"/>
			<stop  offset="0.4404" style="stop-color:#EDECEC"/>
			<stop  offset="0.6174" style="stop-color:#DCDADB"/>
			<stop  offset="0.784" style="stop-color:#C5C3C3"/>
			<stop  offset="0.9418" style="stop-color:#A8A7A7"/>
			<stop  offset="1" style="stop-color:#9C9B9B"/>
		</radialGradient>
		<path style="&st20;" d="M0.803,0.725c0,0.057-0.053,0.098-0.122,0.098H0.433c-0.068,0-0.125-0.041-0.125-0.098l0,0
			c0-0.057,0.057-0.099,0.125-0.099h0.249C0.75,0.625,0.803,0.667,0.803,0.725L0.803,0.725z"/>
		
			<radialGradient id="SVGID_22_" cx="5.8965" cy="5.4736" r="2.9353" gradientTransform="matrix(0.9092 0 0 1.0056 -4.7383 -5.4184)" gradientUnits="userSpaceOnUse">
			<stop  offset="0" style="stop-color:#FAFAFA"/>
			<stop  offset="0.2459" style="stop-color:#F7F6F7"/>
			<stop  offset="0.4404" style="stop-color:#EDECEC"/>
			<stop  offset="0.6174" style="stop-color:#DCDADB"/>
			<stop  offset="0.784" style="stop-color:#C5C3C3"/>
			<stop  offset="0.9418" style="stop-color:#A8A7A7"/>
			<stop  offset="1" style="stop-color:#9C9B9B"/>
		</radialGradient>
		<path style="&st21;" d="M0.682,0.773H0.433c-0.045,0-0.08-0.026-0.08-0.049c0-0.023,0.035-0.049,0.08-0.049h0.249
			c0.042,0,0.076,0.026,0.076,0.049C0.758,0.748,0.724,0.773,0.682,0.773L0.682,0.773z"/>
		
			<radialGradient id="SVGID_23_" cx="0.438" cy="-193.7266" r="2.3083" gradientTransform="matrix(1.0001 0 0 0.8045 0.0241 155.5062)" gradientUnits="userSpaceOnUse">
			<stop  offset="0" style="stop-color:#FAFAFA"/>
			<stop  offset="0.2459" style="stop-color:#F7F6F7"/>
			<stop  offset="0.4404" style="stop-color:#EDECEC"/>
			<stop  offset="0.6174" style="stop-color:#DCDADB"/>
			<stop  offset="0.784" style="stop-color:#C5C3C3"/>
			<stop  offset="0.9418" style="stop-color:#A8A7A7"/>
			<stop  offset="1" style="stop-color:#9C9B9B"/>
		</radialGradient>
		<path style="&st22;" d="M0.803,1.273c0,0.057-0.053,0.102-0.122,0.102H0.433c-0.068,0-0.125-0.044-0.125-0.102l0,0
			c0-0.053,0.057-0.1,0.125-0.1h0.249C0.75,1.174,0.803,1.22,0.803,1.273L0.803,1.273z"/>
		
			<radialGradient id="SVGID_24_" cx="5.8965" cy="5.9961" r="3.0475" gradientTransform="matrix(0.9092 0 0 1.0056 -4.7383 -5.4184)" gradientUnits="userSpaceOnUse">
			<stop  offset="0" style="stop-color:#FAFAFA"/>
			<stop  offset="0.2459" style="stop-color:#F7F6F7"/>
			<stop  offset="0.4404" style="stop-color:#EDECEC"/>
			<stop  offset="0.6174" style="stop-color:#DCDADB"/>
			<stop  offset="0.784" style="stop-color:#C5C3C3"/>
			<stop  offset="0.9418" style="stop-color:#A8A7A7"/>
			<stop  offset="1" style="stop-color:#9C9B9B"/>
		</radialGradient>
		<path style="&st23;" d="M0.682,1.327H0.433c-0.045,0-0.08-0.027-0.08-0.053c0-0.023,0.035-0.049,0.08-0.049h0.249
			c0.042,0,0.076,0.026,0.076,0.049C0.758,1.299,0.724,1.327,0.682,1.327L0.682,1.327z"/>
		
			<radialGradient id="SVGID_25_" cx="0.4194" cy="-192.6963" r="2.0299" gradientTransform="matrix(1.0001 0 0 0.8045 0.0241 155.5062)" gradientUnits="userSpaceOnUse">
			<stop  offset="0" style="stop-color:#FAFAFA"/>
			<stop  offset="0.2459" style="stop-color:#F7F6F7"/>
			<stop  offset="0.4404" style="stop-color:#EDECEC"/>
			<stop  offset="0.6174" style="stop-color:#DCDADB"/>
			<stop  offset="0.784" style="stop-color:#C5C3C3"/>
			<stop  offset="0.9418" style="stop-color:#A8A7A7"/>
			<stop  offset="1" style="stop-color:#9C9B9B"/>
		</radialGradient>
		<path style="&st24;" d="M0.803,1.826c0,0.056-0.053,0.098-0.122,0.098H0.433c-0.068,0-0.125-0.042-0.125-0.098l0,0
			c0-0.057,0.057-0.1,0.125-0.1h0.249C0.75,1.727,0.803,1.769,0.803,1.826L0.803,1.826z"/>
		
			<radialGradient id="SVGID_26_" cx="5.8965" cy="6.5693" r="2.9353" gradientTransform="matrix(0.9092 0 0 1.0056 -4.7383 -5.4184)" gradientUnits="userSpaceOnUse">
			<stop  offset="0" style="stop-color:#FAFAFA"/>
			<stop  offset="0.2459" style="stop-color:#F7F6F7"/>
			<stop  offset="0.4404" style="stop-color:#EDECEC"/>
			<stop  offset="0.6174" style="stop-color:#DCDADB"/>
			<stop  offset="0.784" style="stop-color:#C5C3C3"/>
			<stop  offset="0.9418" style="stop-color:#A8A7A7"/>
			<stop  offset="1" style="stop-color:#9C9B9B"/>
		</radialGradient>
		<path style="&st25;" d="M0.682,1.875H0.433c-0.045,0-0.08-0.027-0.08-0.049c0-0.023,0.035-0.049,0.08-0.049h0.249
			c0.042,0,0.076,0.026,0.076,0.049C0.758,1.849,0.724,1.875,0.682,1.875L0.682,1.875z"/>
		
			<radialGradient id="SVGID_27_" cx="0.4004" cy="-192.4282" r="2.1912" gradientTransform="matrix(1.0001 0 0 0.8045 0.0241 155.5062)" gradientUnits="userSpaceOnUse">
			<stop  offset="0" style="stop-color:#FAFAFA"/>
			<stop  offset="0.2459" style="stop-color:#F7F6F7"/>
			<stop  offset="0.4404" style="stop-color:#EDECEC"/>
			<stop  offset="0.6174" style="stop-color:#DCDADB"/>
			<stop  offset="0.784" style="stop-color:#C5C3C3"/>
			<stop  offset="0.9418" style="stop-color:#A8A7A7"/>
			<stop  offset="1" style="stop-color:#9C9B9B"/>
		</radialGradient>
		<path style="&st26;" d="M0.803,2.374c0,0.056-0.053,0.102-0.122,0.102H0.433c-0.068,0-0.125-0.046-0.125-0.102l0,0
			c0-0.053,0.057-0.099,0.125-0.099h0.249C0.75,2.275,0.803,2.321,0.803,2.374L0.803,2.374z"/>
		
			<radialGradient id="SVGID_28_" cx="5.8965" cy="7.085" r="3.0756" gradientTransform="matrix(0.9092 0 0 1.0056 -4.7383 -5.4184)" gradientUnits="userSpaceOnUse">
			<stop  offset="0" style="stop-color:#FAFAFA"/>
			<stop  offset="0.2459" style="stop-color:#F7F6F7"/>
			<stop  offset="0.4404" style="stop-color:#EDECEC"/>
			<stop  offset="0.6174" style="stop-color:#DCDADB"/>
			<stop  offset="0.784" style="stop-color:#C5C3C3"/>
			<stop  offset="0.9418" style="stop-color:#A8A7A7"/>
			<stop  offset="1" style="stop-color:#9C9B9B"/>
		</radialGradient>
		<path style="&st27;" d="M0.682,2.428H0.433c-0.045,0-0.08-0.027-0.08-0.054c0-0.023,0.035-0.049,0.08-0.049h0.249
			c0.042,0,0.076,0.025,0.076,0.049C0.758,2.4,0.724,2.428,0.682,2.428L0.682,2.428z"/>
	</g>
	<path style="&st2;" d="M1.975,1.801C2.072,1.84,2.23,2.005,2.213,2.055C2.201,2.106,2.065,2.276,1.85,2.173
		C1.732,2.108,1.478,1.848,1.405,1.622c-0.071-0.221-0.085-0.444-0.056-0.55C1.377,0.971,1.403,0.898,1.506,0.84
		C1.56,0.807,1.653,0.775,1.713,0.812c0.04,0.067,0.075,0.307-0.013,0.37c-0.047,0.037-0.112,0.05-0.14,0.082
		c-0.047,0.095,0.007,0.44,0.26,0.591C1.853,1.87,1.932,1.79,1.975,1.801z"/>
</g>
<g id="Layer_8" style="&st29;">
	<polygon style="&st11;" points="3.667,1.125 1.829,1.125 1.829,0.485 0.46,1.603 1.829,2.763 1.829,2.069 3.667,2.069 	"/>
</g>
<g id="Layer_9" style="&st29;">
	<path style="&st11;" d="M2.376,2.006c0.25,0,0.753,0.228,0.759,0.353c0.008,0.125-0.139,0.619-0.708,0.584
		C2.114,2.901,1.314,2.554,0.96,2.122C0.606,1.691,0.376,1.207,0.349,0.955c-0.028-0.25-0.035-0.432,0.139-0.653
		C0.579,0.185,0.751,0.03,0.918,0.059c0.146,0.11,0.441,0.61,0.299,0.833C1.146,1.005,1.016,1.094,0.981,1.185
		C0.96,1.441,1.391,2.157,2.083,2.262C2.166,2.271,2.273,2.021,2.376,2.006z"/>
</g>
<g id="Layer_10" style="&st29;">
	<g id="Layer_3_1_" style="&st14;">
		<polygon style="&st28;" points="0.773,2.847 1.637,2.847 1.637,2.077 2.298,2.077 1.205,0.915 0.09,2.073 0.775,2.069 		"/>
	</g>
	<g id="Layer_3_copy" style="&st14;">
		<polygon style="&st28;" points="3.214,0.153 2.351,0.153 2.351,0.922 1.689,0.922 2.782,2.084 3.897,0.927 3.213,0.931 		"/>
	</g>
</g>
</svg>
