<?xml version="1.0" encoding="utf-8"?>
<!-- Generator: Adobe Illustrator 13.0.0, SVG Export Plug-In  -->
<!DOCTYPE svg PUBLIC "-//W3C//DTD SVG 1.1//EN" "http://www.w3.org/Graphics/SVG/1.1/DTD/svg11.dtd" [
	<!ENTITY ns_flows "http://ns.adobe.com/Flows/1.0/">
]>
<svg version="1.1"
	 xmlns="http://www.w3.org/2000/svg" xmlns:xlink="http://www.w3.org/1999/xlink" xmlns:a="http://ns.adobe.com/AdobeSVGViewerExtensions/3.0/"
	 x="0px" y="0px" width="247px" height="190px" viewBox="-45.212 -6.365 247 190" enable-background="new -45.212 -6.365 247 190"
	 xml:space="preserve">
<defs>
</defs>
<rect x="64.385" y="0.634" fill="#64CBFF" stroke="#000000" width="16" height="16"/>
<rect x="80.583" y="0.5" fill="#64CBFF" stroke="#000000" width="16" height="16"/>
<rect x="64.346" y="16.75" fill="#64CBFF" stroke="#000000" width="16" height="16"/>
<rect x="48.346" y="16.75" fill="#64CBFF" stroke="#000000" width="16" height="16"/>
<rect x="64.385" y="80.616" fill="#00FD00" stroke="#000000" width="16" height="16"/>
<rect x="80.583" y="80.75" fill="#00FD00" stroke="#000000" width="16" height="16"/>
<rect x="64.346" y="64.5" fill="#00FD00" stroke="#000000" width="16" height="16"/>
<rect x="48.346" y="64.5" fill="#00FD00" stroke="#000000" width="16" height="16"/>
<rect x="64.417" y="96.667" fill="#FCFE00" stroke="#000000" width="16" height="16"/>
<rect x="64.333" y="112.75" fill="#FCFE00" stroke="#000000" width="16" height="16"/>
<rect x="80.333" y="112.75" fill="#FCFE00" stroke="#000000" width="16" height="16"/>
<rect x="48.5" y="112.75" fill="#FCFE00" stroke="#000000" width="16" height="16"/>
<rect x="80.583" y="144.5" fill="#D101FC" stroke="#000000" width="16" height="16"/>
<rect x="64.417" y="128.667" fill="#D000FC" stroke="#000000" width="16" height="16"/>
<rect x="80.416" y="128.667" fill="#D000FC" stroke="#000000" width="16" height="16"/>
<rect x="48.583" y="128.667" fill="#D000FC" stroke="#000000" width="16" height="16"/>
<rect x="64.5" y="144.584" fill="#72D5FF" stroke="#000000" width="16" height="16"/>
<rect x="64.5" y="160.584" fill="#72D5FF" stroke="#000000" width="16" height="16"/>
<rect x="80.583" y="160.667" fill="#72D5FF" stroke="#000000" width="16" height="16"/>
<rect x="48.5" y="144.584" fill="#0001FC" stroke="#000000" width="16" height="16"/>
<rect x="48.5" y="160.584" fill="#0001FC" stroke="#000000" width="16" height="16"/>
<rect x="144.208" y="144.25" fill="#FF6504" stroke="#000000" width="16" height="16"/>
<rect x="144.166" y="128.417" fill="#FF6504" stroke="#000000" width="16" height="16"/>
<rect x="128.125" y="160.334" fill="#0001FC" stroke="#000000" width="16" height="16"/>
<rect x="144.208" y="160.417" fill="#FF6504" stroke="#000000" width="16" height="16"/>
<rect x="32.5" y="112.75" fill="#F96900" stroke="#000000" width="16" height="16"/>
<rect x="32.583" y="128.667" fill="#F96900" stroke="#000000" width="16" height="16"/>
<rect x="32.5" y="144.584" fill="#F96900" stroke="#000000" width="16" height="16"/>
<rect x="32.5" y="160.584" fill="#F96900" stroke="#000000" width="16" height="16"/>
<rect x="16.5" y="144.584" fill="#72D5FF" stroke="#000000" width="16" height="16"/>
<rect x="16.5" y="160.584" fill="#72D5FF" stroke="#000000" width="16" height="16"/>
<rect x="0.583" y="128.667" fill="#72D5FF" stroke="#000000" width="16" height="16"/>
<rect x="0.5" y="144.584" fill="#72D5FF" stroke="#000000" width="16" height="16"/>
<rect x="0.5" y="160.584" fill="#D000FC" stroke="#000000" width="16" height="16"/>
</svg>
